<svg width="800.0000000000001" height="275" xmlns="http://www.w3.org/2000/svg">
 <g id="Layer_1">
  <title>Layer 1</title>
  <path stroke-width="2" id="svg_21" d="m0.58823,117.79411c144.70587,-58.82353 209.99999,68.82353 209.41176,68.67648c0.58822,0.14705 13.5294,28.97058 21.76469,33.08822c8.23529,4.11765 27.64706,0.58824 29.41176,-0.58824c1.76471,-1.17647 16.47059,-5.29412 22.35294,-14.70588c5.88235,-9.41176 -0.58824,-11.17647 17.05882,-26.47059c17.64706,-15.29412 21.17647,-12.35294 42.94117,-22.35294c21.7647,-10 12.94118,12.94118 25.88235,-12.94118c12.94118,-25.88235 35.29412,-27.64706 34.7059,-27.79411" opacity="NaN" stroke="#22bb88" fill="none"/>
  <path stroke-width="2" id="svg_26" d="m800.58819,192.49999c-104.11764,31.17647 -188.82352,-7.64706 -188.82352,-8.23529c0,-0.58824 -52.94117,-20 -53.52941,-37.64706c-0.58824,-17.64706 -75.29411,-48.23529 -69.41176,-5.88235c5.88235,42.35294 -12.35294,65.88235 -51.7647,59.41176c-39.41176,-6.47059 23.52941,-65.29411 -52.35294,-5.29412" opacity="NaN" stroke="#22bb88" fill="none"/>
  <ellipse stroke-width="2" transform="rotate(-49, 290, 145.147)" ry="28.20546" rx="50.04321" id="svg_3" cy="145.14707" cx="289.99997" stroke="#22bb88" fill="none"/>
  <path id="svg_9" d="m461.17644,230.73528" opacity="NaN" stroke="#22bb88" fill="none"/>
  <ellipse stroke-width="2" transform="rotate(-49, 391.765, 155.735)" ry="28.20546" rx="50.04321" id="svg_10" cy="155.73531" cx="391.76468" stroke="#22bb88" fill="none"/>
  <path stroke-width="2" transform="rotate(-14, 378.227, 113.615)" id="svg_11" d="m267.21799,89.71093c102.9985,-21.44857 169.94753,51.23824 169.37533,51.0893c0.57219,0.14894 51.49923,5.51108 52.64366,-16.53328" opacity="NaN" stroke="#22bb88" fill="none"/>
  <path stroke-width="2" transform="rotate(34, 423.24, 140.147)" id="svg_12" d="m430.58821,118.38235c1.17647,4.70588 14.11765,21.7647 -18.23529,43.52941" opacity="NaN" stroke="#22bb88" fill="none"/>
  <path style="vector-effect: non-scaling-stroke;" id="svg_15" d="m277.05882,82.35294" opacity="NaN" stroke="#22bb88" fill="none"/>
  <ellipse stroke-width="2" transform="rotate(-77, 402.353, 53.9706)" ry="23.82048" rx="12.83669" id="svg_16" cy="53.9706" cx="402.35293" stroke="#22bb88" fill="none"/>
  <path stroke-width="2" id="svg_18" d="m395.29409,65.44117c-125.29411,105.29411 -41.17647,25.29412 -41.17647,50c0,24.70588 22.94118,-1.76471 0,27.05882" opacity="NaN" stroke="#22bb88" fill="none"/>
  <path stroke-width="2" transform="rotate(28, 424.466, 96.0741)" id="svg_19" d="m379.0699,97.26501c90.79293,4.11765 77.46553,-19.41176 90.79293,4.11765" opacity="NaN" stroke="#22bb88" fill="none"/>
  <path stroke-width="2" transform="rotate(156, 357.353, 120.739)" id="svg_20" d="m371.76476,134.85293c-25.08719,-19.41176 -21.88457,-40.58823 -25.08719,-19.41176c-3.20262,21.17647 -3.20262,-23.52941 -3.73639,0" opacity="NaN" stroke="#22bb88" fill="none"/>
  <path id="svg_22" d="m47.99911,-52.53252l0.56913,0l0.17587,-0.54067l0.17587,0.54067l0.56913,0l-0.46044,0.33415l0.17588,0.54067l-0.46044,-0.33416l-0.46044,0.33416l0.17588,-0.54067l-0.46044,-0.33415z" stroke="#000" fill="none"/>
  <path stroke-width="2" transform="rotate(-176, 662.947, 88.9598)" id="svg_23" d="m461.17644,44.85294c144.70587,-58.82353 209.99999,68.82353 209.41176,68.67648c0.58822,0.14705 13.5294,28.97058 21.76469,33.08822c8.23529,4.11765 27.64706,0.58824 29.41176,-0.58824c1.76471,-1.17647 16.47059,-5.29412 22.35294,-14.70588c5.88235,-9.41176 -0.58824,-11.17647 17.05882,-26.47059c17.64706,-15.29412 21.17647,-12.35294 42.94117,-22.35294c21.7647,-10 12.94118,12.94118 25.88235,-12.94118c12.94118,-25.88235 35.29412,-27.64706 34.7059,-27.79411" opacity="NaN" stroke="#22bb88" fill="none"/>
  <path stroke-width="2" id="svg_24" d="m-2.35296,48.97058c91.54034,-22.35294 20.80462,-49.41176 98.07894,-21.7647c77.27431,27.64706 5.34976,54.11764 61.81945,65.88235c56.46969,11.76471 54.09202,-14.70588 115.31705,-20c61.22503,-5.29412 32.69298,-29.41176 61.22503,-2.35294c28.53205,27.05882 60.0362,-4.11765 59.4418,-4.2647" opacity="NaN" stroke="#22bb88" fill="none"/>
 </g>
</svg>