<?xml version="1.0" standalone="no"?><svg xmlns="http://www.w3.org/2000/svg" viewBox="0 0 1440 320"><path fill="#22bb88" fill-opacity="1" d="M0,224L12,208C24,192,48,160,72,133.3C96,107,120,85,144,69.3C168,53,192,43,216,32C240,21,264,11,288,10.7C312,11,336,21,360,37.3C384,53,408,75,432,101.3C456,128,480,160,504,149.3C528,139,552,85,576,101.3C600,117,624,203,648,213.3C672,224,696,160,720,149.3C744,139,768,181,792,192C816,203,840,181,864,186.7C888,192,912,224,936,224C960,224,984,192,1008,197.3C1032,203,1056,245,1080,224C1104,203,1128,117,1152,112C1176,107,1200,181,1224,224C1248,267,1272,277,1296,234.7C1320,192,1344,96,1368,85.3C1392,75,1416,149,1428,186.7L1440,224L1440,0L1428,0C1416,0,1392,0,1368,0C1344,0,1320,0,1296,0C1272,0,1248,0,1224,0C1200,0,1176,0,1152,0C1128,0,1104,0,1080,0C1056,0,1032,0,1008,0C984,0,960,0,936,0C912,0,888,0,864,0C840,0,816,0,792,0C768,0,744,0,720,0C696,0,672,0,648,0C624,0,600,0,576,0C552,0,528,0,504,0C480,0,456,0,432,0C408,0,384,0,360,0C336,0,312,0,288,0C264,0,240,0,216,0C192,0,168,0,144,0C120,0,96,0,72,0C48,0,24,0,12,0L0,0Z"></path></svg>